<?xml version="1.0" encoding="utf-8"?>
<!-- Generator: Adobe Illustrator 23.0.1, SVG Export Plug-In . SVG Version: 6.00 Build 0)  -->
<svg version="1.1" id="Layer_1" xmlns="http://www.w3.org/2000/svg" xmlns:xlink="http://www.w3.org/1999/xlink" x="0px" y="0px"
	 viewBox="0 0 303 99.4" style="enable-background:new 0 0 303 99.4;" xml:space="preserve">
<style type="text/css">
	.st0{fill:#FDAC00;}
</style>
<title>logo</title>
<path class="st0" d="M20.5,43.7c-3-1-5.8-2.1-8.3-3.2c-2.3-1-4.5-2.3-6.4-3.9c-1.8-1.5-3.2-3.4-4.2-5.5c-1.1-2.4-1.6-5.1-1.5-7.8
	c-0.2-5.5,2.4-10.8,6.8-14.1C11.3,5.7,17.7,4,25.9,4c2.8,0,5.6,0.2,8.3,0.6c2.3,0.3,4.5,1,6.6,1.9c1.7,0.7,3.2,1.9,4.3,3.3
	c1,1.4,1.6,3,1.6,4.7c0,1.6-0.4,3.2-1.3,4.6c-0.8,1.3-1.8,2.4-3,3.3c-1.9-1.1-4-2-6.1-2.5c-2.7-0.8-5.6-1.1-8.4-1.1
	c-3.1,0-5.4,0.4-6.9,1.3c-1.3,0.6-2.1,1.9-2.2,3.3c0,1,0.5,2,1.3,2.5c1.2,0.8,2.6,1.4,4,1.8l5.5,1.8c6.5,2.1,11.5,4.7,15,8
	c3.5,3.3,5.2,7.6,5.3,13.1c0.1,5.6-2.5,11-7,14.3c-4.7,3.6-11.5,5.5-20.5,5.5c-3,0-6-0.2-8.9-0.8c-2.5-0.4-4.9-1.2-7.1-2.3
	c-1.9-0.9-3.5-2.1-4.8-3.7C0.6,62.1,0,60.3,0,58.5c0-1.9,0.6-3.7,1.8-5.2C2.8,52,4.1,50.8,5.6,50c2.2,1.7,4.6,3,7.1,4
	c2.9,1.1,6.1,1.7,9.2,1.7c3.4,0,5.8-0.5,7.2-1.6c1.3-0.8,2-2.2,2.1-3.6c0.1-1.3-0.6-2.5-1.7-3.2c-1.5-0.9-3-1.6-4.7-2.1L20.5,43.7z"
	/>
<path class="st0" d="M108.5,68.6c-1.1,0.3-2.2,0.5-3.3,0.6c-1.5,0.2-3.1,0.3-4.6,0.3c-1.4,0-2.8-0.1-4.1-0.3
	c-1.1-0.2-2.2-0.6-3.1-1.3c-0.9-0.7-1.5-1.5-1.9-2.6c-0.5-1.3-0.7-2.8-0.7-4.2V38.2c0-2.8-0.7-4.8-2.1-6c-1.5-1.2-3.4-1.8-5.3-1.7
	c-1.4,0-2.7,0.2-4,0.5c-1.1,0.3-2.1,0.7-3,1.3v36.4c-1.1,0.3-2.2,0.5-3.3,0.6c-1.5,0.2-3.1,0.3-4.6,0.3c-1.4,0-2.8-0.1-4.1-0.3
	c-1.1-0.2-2.1-0.6-3-1.3c-0.9-0.7-1.5-1.5-1.9-2.6c-0.5-1.3-0.7-2.8-0.7-4.2V0.9l3.4-0.6c1.5-0.2,3-0.4,4.5-0.4
	c1.4,0,2.7,0.1,4.1,0.3c1.1,0.2,2.2,0.6,3.1,1.3c0.9,0.7,1.5,1.5,1.9,2.5c0.5,1.3,0.7,2.8,0.7,4.2v10.2c1.3-0.5,2.7-0.9,4.1-1.2
	c2-0.5,4-0.7,6.1-0.7c6.9,0,12.2,1.7,16.1,5.1s5.8,8.5,5.8,15.3L108.5,68.6z"/>
<path class="st0" d="M171.7,43.5c0.1,3.9-0.6,7.8-2,11.5c-1.2,3.2-3.1,6.1-5.6,8.5c-2.5,2.3-5.4,4.1-8.6,5.2
	c-3.6,1.2-7.3,1.8-11.1,1.8c-3.8,0.1-7.6-0.6-11.1-1.9c-3.2-1.2-6.1-3-8.6-5.4c-2.4-2.4-4.3-5.3-5.6-8.5c-1.4-3.6-2.1-7.4-2-11.2
	c0-3.8,0.6-7.6,2-11.1c1.2-3.2,3.1-6.1,5.6-8.5c2.5-2.4,5.4-4.2,8.6-5.4c3.6-1.3,7.3-1.9,11.1-1.9c3.8-0.1,7.6,0.6,11.1,1.9
	c3.2,1.2,6.1,3.1,8.6,5.4c2.4,2.4,4.3,5.3,5.6,8.5C171.1,36,171.8,39.7,171.7,43.5z M135.3,43.5c0,4.2,0.8,7.5,2.4,9.7
	c1.5,2.2,4.1,3.5,6.8,3.4c2.7,0.1,5.2-1.2,6.7-3.4c1.6-2.3,2.3-5.5,2.3-9.7s-0.8-7.4-2.4-9.6c-2.8-3.7-8.1-4.5-11.8-1.7
	c-0.6,0.5-1.2,1-1.7,1.7C136.1,36.1,135.3,39.3,135.3,43.5z"/>
<path class="st0" d="M232.6,43.5c0.1,3.9-0.6,7.8-2,11.5c-1.2,3.2-3.1,6.1-5.6,8.5c-2.5,2.3-5.4,4.1-8.6,5.2
	c-3.6,1.2-7.3,1.8-11.1,1.8c-3.8,0.1-7.6-0.6-11.1-1.9c-3.2-1.2-6.1-3-8.6-5.4c-2.4-2.4-4.3-5.3-5.6-8.5c-1.4-3.6-2.1-7.4-2-11.2
	c0-3.8,0.6-7.6,2-11.1c1.2-3.2,3.1-6.1,5.6-8.5c2.5-2.4,5.4-4.2,8.6-5.4c3.6-1.3,7.3-1.9,11.1-1.9c3.8-0.1,7.6,0.6,11.1,1.9
	c3.2,1.2,6.1,3.1,8.6,5.4c2.4,2.4,4.3,5.3,5.6,8.5C232,36,232.7,39.7,232.6,43.5z M196.3,43.5c0,4.2,0.8,7.5,2.4,9.7
	c1.5,2.2,4.1,3.5,6.8,3.4c2.7,0.1,5.2-1.2,6.7-3.4c1.6-2.3,2.3-5.5,2.3-9.7s-0.8-7.4-2.4-9.6c-2.8-3.7-8.1-4.5-11.8-1.7
	c-0.6,0.5-1.2,1-1.7,1.7C197.1,36.1,196.3,39.3,196.3,43.5z"/>
<path class="st0" d="M259,51.4c-0.1,1.5,0.5,3,1.7,3.8c1.5,0.8,3.2,1.2,4.8,1.1c1.1,0,2.2-0.1,3.2-0.3c1-0.1,2-0.4,2.9-0.7
	c0.6,0.8,1.2,1.7,1.6,2.6c0.5,1.1,0.7,2.2,0.7,3.4c0.1,2.5-1,4.9-3,6.5c-2,1.7-5.5,2.5-10.5,2.5c-6.1,0-10.8-1.4-14.1-4.2
	c-3.3-2.8-4.9-7.3-4.9-13.5V8.1c0.8-0.2,1.9-0.4,3.3-0.7c1.5-0.3,3-0.4,4.5-0.4c2.5-0.1,4.9,0.4,7.1,1.6c1.7,1.1,2.6,3.4,2.6,6.8
	v6.6h13.6c0.5,0.9,0.9,1.9,1.2,2.9c0.4,1.2,0.6,2.5,0.6,3.8c0,2.4-0.5,4.2-1.6,5.2c-1.2,1.1-2.7,1.7-4.3,1.6H259V51.4z"/>
<path class="st0" d="M283,60.8c0-5.5,4.5-10,10-10s10,4.5,10,10s-4.5,10-10,10S283,66.4,283,60.8z M302.1,8.4c0,1.6,0,3.9-0.1,6.9
	s-0.2,6.3-0.4,9.8s-0.5,7-0.8,10.5s-0.8,6.5-1.3,9.1c-0.4,0.3-0.8,0.5-1.3,0.6c-0.6,0.2-1.2,0.4-1.8,0.5c-0.6,0.1-1.3,0.2-1.9,0.3
	c-0.6,0.1-1.1,0.1-1.7,0.1c-1.7,0.1-3.5-0.3-5-0.9c-1.4-0.7-2.4-2.1-2.5-3.6c-0.4-2.4-0.7-4.8-0.9-7.3c-0.2-3.3-0.5-6.8-0.7-10.6
	s-0.4-7.6-0.5-11.3s-0.1-6.9-0.1-9.6c1.5-0.8,3.1-1.4,4.7-1.8c1.7-0.4,3.5-0.7,5.3-0.7c2.4-0.1,4.7,0.6,6.6,2
	C301.4,3.7,302.1,5.7,302.1,8.4z"/>
<path class="st0" d="M284.7,97.4H59.4c0-8.6,6.9-15.5,15.5-15.5c0,0,0,0,0.1,0h225.2C300.2,90.5,293.3,97.4,284.7,97.4
	C284.7,97.4,284.7,97.4,284.7,97.4z"/>
<path class="st0" d="M14.7,89.7c-0.1-2.6,0.9-5.1,2.7-7c1.9-1.9,4.6-2.9,7.3-2.8c2.7-0.2,5.4,0.8,7.3,2.7c3.5,4,3.5,10,0,14
	c-1.9,1.9-4.6,2.9-7.3,2.8c-2.7,0.2-5.4-0.8-7.3-2.8C15.6,94.7,14.6,92.2,14.7,89.7z"/>
</svg>
