<svg id="Layer_1" data-name="Layer 1" xmlns="http://www.w3.org/2000/svg" viewBox="0 0 302.96 99.43"><defs><style>.cls-1{fill:#fff;}</style></defs><title>logo</title><path class="cls-1" d="M20.49,43.68c-3-1-5.83-2.1-8.32-3.17a25.45,25.45,0,0,1-6.45-3.9,16.23,16.23,0,0,1-4.21-5.46A17.91,17.91,0,0,1,0,23.4,17,17,0,0,1,6.81,9.26Q13.62,3.95,25.9,4a51.62,51.62,0,0,1,8.32.63,24.53,24.53,0,0,1,6.6,1.92,11.56,11.56,0,0,1,4.32,3.33,7.54,7.54,0,0,1,1.56,4.73,8.34,8.34,0,0,1-1.25,4.63,12.92,12.92,0,0,1-3,3.27,23.23,23.23,0,0,0-6.13-2.54,30.77,30.77,0,0,0-8.43-1.1c-3.12,0-5.41.44-6.86,1.3a3.79,3.79,0,0,0-2.19,3.28A3,3,0,0,0,20.18,26a14.12,14.12,0,0,0,4.05,1.82l5.52,1.77q9.77,3.12,15,8T50,50.65a17.33,17.33,0,0,1-7,14.3q-7,5.46-20.49,5.46a47.6,47.6,0,0,1-8.89-.78A27.91,27.91,0,0,1,6.5,67.34,13.11,13.11,0,0,1,1.72,63.6,8.2,8.2,0,0,1,0,58.45,7.8,7.8,0,0,1,1.77,53.3,13.41,13.41,0,0,1,5.62,50,28.38,28.38,0,0,0,12.74,54a24.83,24.83,0,0,0,9.2,1.66q5.1,0,7.18-1.56a4.48,4.48,0,0,0,2.08-3.64,3.56,3.56,0,0,0-1.66-3.17,21.32,21.32,0,0,0-4.68-2.13Z"/><path class="cls-1" d="M108.47,68.64a23.69,23.69,0,0,1-3.27.63,34.84,34.84,0,0,1-4.63.31,25.3,25.3,0,0,1-4.11-.31A7.14,7.14,0,0,1,93.39,68a6,6,0,0,1-1.92-2.55,11,11,0,0,1-.68-4.21V38.17c0-2.84-.71-4.84-2.13-6a8.07,8.07,0,0,0-5.25-1.72,15,15,0,0,0-4,.52,11.54,11.54,0,0,0-3,1.25v36.4a23.69,23.69,0,0,1-3.27.63,35,35,0,0,1-4.63.31,25.3,25.3,0,0,1-4.11-.31A7.09,7.09,0,0,1,61.36,68a6,6,0,0,1-1.92-2.55,11,11,0,0,1-.68-4.21V.94L62.14.36A28.44,28.44,0,0,1,66.67,0a24.18,24.18,0,0,1,4.1.31,7,7,0,0,1,3.07,1.25,6.05,6.05,0,0,1,1.93,2.55,11,11,0,0,1,.67,4.21V18.51a38.16,38.16,0,0,1,4.11-1.19,25.54,25.54,0,0,1,6.08-.68q10.31,0,16.07,5.15t5.77,15.34Z"/><path class="cls-1" d="M171.71,43.47a31.33,31.33,0,0,1-2,11.5,23.36,23.36,0,0,1-5.56,8.47,23.62,23.62,0,0,1-8.58,5.2,33.15,33.15,0,0,1-11.13,1.77,31.46,31.46,0,0,1-11.13-1.87,24.39,24.39,0,0,1-8.58-5.36,23.84,23.84,0,0,1-5.56-8.47,30.3,30.3,0,0,1-2-11.24,30,30,0,0,1,2-11.13,23.84,23.84,0,0,1,5.56-8.47,24.53,24.53,0,0,1,8.58-5.36,31.46,31.46,0,0,1,11.13-1.87,30.8,30.8,0,0,1,11.13,1.92A25.23,25.23,0,0,1,164.17,24a24,24,0,0,1,5.56,8.48A29.64,29.64,0,0,1,171.71,43.47Zm-36.4,0q0,6.35,2.44,9.73a7.94,7.94,0,0,0,6.81,3.38,7.64,7.64,0,0,0,6.71-3.43q2.34-3.43,2.34-9.68t-2.39-9.62a8.45,8.45,0,0,0-13.52,0Q135.3,37.24,135.31,43.47Z"/><path class="cls-1" d="M232.65,43.47a31.54,31.54,0,0,1-2,11.5,23.25,23.25,0,0,1-5.57,8.47,23.62,23.62,0,0,1-8.58,5.2,33.07,33.07,0,0,1-11.13,1.77,31.37,31.37,0,0,1-11.12-1.87,24.39,24.39,0,0,1-8.58-5.36,23.86,23.86,0,0,1-5.57-8.47,30.3,30.3,0,0,1-2-11.24,30,30,0,0,1,2-11.13,23.86,23.86,0,0,1,5.57-8.47,24.53,24.53,0,0,1,8.58-5.36,31.37,31.37,0,0,1,11.12-1.87,30.72,30.72,0,0,1,11.13,1.92A25.23,25.23,0,0,1,225.11,24a23.9,23.9,0,0,1,5.57,8.48A29.84,29.84,0,0,1,232.65,43.47Zm-36.4,0q0,6.35,2.45,9.73a7.94,7.94,0,0,0,6.81,3.38,7.65,7.65,0,0,0,6.71-3.43q2.34-3.43,2.34-9.68t-2.39-9.62a8.45,8.45,0,0,0-13.52,0Q196.25,37.24,196.25,43.47Z"/><path class="cls-1" d="M259,51.38a4.3,4.3,0,0,0,1.71,3.85,8.73,8.73,0,0,0,4.84,1.14,21.26,21.26,0,0,0,3.22-.26,17.39,17.39,0,0,0,2.91-.68A13.31,13.31,0,0,1,273.27,58a7.78,7.78,0,0,1,.67,3.38,8,8,0,0,1-3,6.45q-3,2.49-10.45,2.5-9.16,0-14.1-4.16t-4.94-13.52V8.11c.77-.21,1.86-.43,3.28-.67a26.1,26.1,0,0,1,4.52-.37,13.37,13.37,0,0,1,7.13,1.61Q259,10.3,259,15.5v6.65h13.62a18.68,18.68,0,0,1,1.2,2.86,12,12,0,0,1,.57,3.8q0,3.64-1.61,5.25a5.83,5.83,0,0,1-4.32,1.61H259Z"/><path class="cls-1" d="M283,60.84a10,10,0,1,1,20,0,10,10,0,1,1-20,0ZM302.13,8.42c0,1.6,0,3.9-.11,6.92s-.2,6.28-.41,9.78-.49,7-.83,10.5-.77,6.54-1.25,9.1a5.31,5.31,0,0,1-1.25.63,14.68,14.68,0,0,1-1.77.52c-.62.13-1.25.24-1.87.31a15,15,0,0,1-1.66.1,12.08,12.08,0,0,1-5.05-.93,4.68,4.68,0,0,1-2.55-3.64,58.39,58.39,0,0,1-.88-7.29c-.24-3.25-.47-6.79-.68-10.6s-.36-7.6-.47-11.34-.15-6.93-.15-9.57a20.16,20.16,0,0,1,4.73-1.82,21.24,21.24,0,0,1,5.25-.67,10,10,0,0,1,6.61,2Q302.13,4.37,302.13,8.42Z"/><path class="cls-1" d="M284.7,97.41H59.42A15.52,15.52,0,0,1,75,81.89H300.23A15.52,15.52,0,0,1,284.7,97.41Z"/><path class="cls-1" d="M14.71,89.65a9.71,9.71,0,0,1,2.65-7,9.69,9.69,0,0,1,7.33-2.76A9.67,9.67,0,0,1,32,82.63a10.59,10.59,0,0,1,0,14,9.67,9.67,0,0,1-7.33,2.76,9.69,9.69,0,0,1-7.33-2.76A9.71,9.71,0,0,1,14.71,89.65Z"/></svg>